<svg xmlns="http://www.w3.org/2000/svg" xmlns:xlink="http://www.w3.org/1999/xlink" width="500" zoomAndPan="magnify" viewBox="0 0 375 374.999991" height="500" preserveAspectRatio="xMidYMid meet" version="1.0"><defs><clipPath id="f5ab2a92b5"><path d="M 145.003906 134.710938 L 223 134.710938 L 223 240 L 145.003906 240 Z M 145.003906 134.710938 " clip-rule="nonzero"/></clipPath><clipPath id="dd04eb26ef"><path d="M 177 201 L 229.753906 201 L 229.753906 240 L 177 240 Z M 177 201 " clip-rule="nonzero"/></clipPath></defs><g clip-path="url(#f5ab2a92b5)"><path fill="#1f1a17" d="M 167.847656 200.359375 C 169.15625 199.5625 171.160156 198.714844 173.851562 197.839844 C 176.539062 196.960938 178.644531 196.308594 180.175781 195.871094 C 181.699219 195.433594 184.101562 194.773438 187.378906 193.894531 C 190.644531 193.019531 192.9375 192.4375 194.246094 192.140625 C 212.871094 186.886719 222.171875 176.433594 222.171875 160.804688 C 222.171875 153.207031 219.589844 146.964844 214.425781 142.066406 C 209.261719 137.175781 202.027344 134.726562 192.714844 134.726562 C 177.507812 134.726562 166.640625 139.5625 160.148438 149.203125 C 159.101562 141.683594 154.652344 136.835938 146.691406 134.726562 C 146.691406 135.550781 146.691406 136.371094 146.691406 137.148438 L 146.679688 137.148438 C 146.679688 155.144531 146.679688 173.164062 146.679688 191.160156 C 153.828125 186.070312 159.136719 184.980469 160.082031 176.292969 C 160.957031 168.546875 163.730469 162.019531 168.394531 156.746094 C 174.132812 150.246094 181.886719 147 191.632812 147 C 196.429688 147 200.320312 148.351562 203.300781 151.050781 C 206.28125 153.75 207.777344 157.21875 207.777344 161.457031 C 207.777344 165.992188 206.246094 169.753906 203.195312 172.75 C 200.144531 175.742188 194.898438 178.335938 187.484375 180.53125 C 182.101562 182.136719 178.28125 183.300781 176.027344 184.03125 C 173.777344 184.765625 170.539062 185.894531 166.316406 187.429688 C 159.082031 190.0625 149.21875 195.710938 146.46875 203.542969 C 145 207.738281 145.160156 211.734375 145.160156 216.066406 C 145.160156 224.300781 145.160156 230.640625 145.160156 239.917969 C 153.253906 237.773438 157.726562 232.8125 158.679688 225.070312 L 158.679688 213.777344 C 158.679688 206.394531 161.484375 204.273438 167.847656 200.359375 " fill-opacity="1" fill-rule="evenodd"/></g><g clip-path="url(#dd04eb26ef)"><path fill="#d82a27" d="M 177.09375 203.636719 C 185.710938 205.53125 197.9375 225.207031 203.996094 232.644531 C 209.097656 238.898438 214.058594 240.429688 229.753906 239.785156 C 222.058594 236.808594 212.964844 222.570312 201.648438 207.921875 C 195.0625 199.394531 184.339844 200.339844 177.09375 203.636719 " fill-opacity="1" fill-rule="evenodd"/></g></svg>